<svg id="Layer_1" data-name="Layer 1" xmlns="http://www.w3.org/2000/svg" xmlns:xlink="http://www.w3.org/1999/xlink" viewBox="0 0 1080 299.86"><defs><style>.cls-1{fill:url(#linear-gradient);}.cls-2{fill:url(#linear-gradient-2);}.cls-3{fill:url(#linear-gradient-3);}.cls-4{fill:url(#linear-gradient-4);}</style><linearGradient id="linear-gradient" x1="414.51" y1="318.75" x2="519.53" y2="318.75" gradientTransform="matrix(1, 0, 0, -1, 0, 395.39)" gradientUnits="userSpaceOnUse"><stop offset="0" stop-color="#9770af"/><stop offset="0.6" stop-color="#643f91"/><stop offset="1" stop-color="#4b328a"/></linearGradient><linearGradient id="linear-gradient-2" x1="42.3" y1="219.26" x2="168.33" y2="219.26" gradientTransform="matrix(1, 0, 0, -1, 0, 395.39)" gradientUnits="userSpaceOnUse"><stop offset="0" stop-color="#4b328a"/><stop offset="0.4" stop-color="#643f91"/><stop offset="1" stop-color="#9770af"/></linearGradient><linearGradient id="linear-gradient-3" x1="122.14" y1="291.94" x2="248.17" y2="291.94" xlink:href="#linear-gradient"/><linearGradient id="linear-gradient-4" x1="145.44" y1="229.38" x2="144.55" y2="282.8" xlink:href="#linear-gradient"/></defs><path d="M378.6,49.69H273.39V73.57h0c0,13.19,12.73,23.88,28.44,23.89H349c3.22,0,5.82,2.17,5.86,4.86V215.47h0v23.89h29c15.47-.25,27.92-10.84,27.92-23.88V77.56C411.76,62.19,396.92,49.75,378.6,49.69Z"/><path class="cls-1" d="M414.51,103.58h51.13a53.88,53.88,0,0,0,53.89-53.87v0H468.41a53.9,53.9,0,0,0-53.9,53.89Z"/><path d="M468.19,214q-2.43-5.52-5.18-12.35T457.28,186q-3-8.81-6.18-20.17t-6.72-26.13A28.54,28.54,0,0,1,464,132q7.71,0,12.79,3.19t7.49,12l17.42,60.61h.89q2.64-7.49,5.18-16.31t5-18.19q2.41-9.37,4.52-18.74t3.64-18.42a36.64,36.64,0,0,1,17.41-4.18q7.73,0,12.79,3.3t5,11.54a72.53,72.53,0,0,1-1.54,13.78q-1.54,7.83-4.08,16.65t-5.95,18.19q-3.42,9.38-7.17,18.38t-7.72,17.08q-4,8.05-7.71,14.45a154.72,154.72,0,0,1-11.47,17.63,63,63,0,0,1-10.14,10.7,29,29,0,0,1-9.7,5.29,35.85,35.85,0,0,1-10.14,1.43q-9.27,0-15-5.51a23.19,23.19,0,0,1-6.83-14.33q7.05-5.52,14.11-12.24a148.83,148.83,0,0,0,12.79-13.78,20.79,20.79,0,0,1-8.05-5.18Q473.26,225.21,468.19,214Z"/><path d="M632.23,160.39a31.11,31.11,0,0,0-10.47,1.76,24.36,24.36,0,0,0-8.6,5.18,25.14,25.14,0,0,0-5.84,8.49,29.71,29.71,0,0,0-2.21,11.93q0,13.67,7.83,20.5A28,28,0,0,0,632,215.07a38.35,38.35,0,0,0,11.47-1.54,71.48,71.48,0,0,0,8.59-3.31,23,23,0,0,1,6.62,6.72,16.5,16.5,0,0,1,2.2,8.71q0,9-8.59,14t-23.82,5a73.09,73.09,0,0,1-25.13-4.08,56.51,56.51,0,0,1-19.29-11.46,50.55,50.55,0,0,1-12.46-17.75,58,58,0,0,1-4.41-22.93q0-14.55,4.74-25.47a49.27,49.27,0,0,1,12.9-18,54.48,54.48,0,0,1,18.85-10.58,71.7,71.7,0,0,1,22.6-3.53q15.87,0,24.47,5.74t8.6,14.77a16.12,16.12,0,0,1-2,7.83,27.93,27.93,0,0,1-4.63,6.28,72.41,72.41,0,0,0-9-3.42A38.47,38.47,0,0,0,632.23,160.39Z"/><path d="M787.23,187.75A66.54,66.54,0,0,1,783,212.09a49.36,49.36,0,0,1-11.79,18,50.3,50.3,0,0,1-18.19,11,70.57,70.57,0,0,1-23.59,3.74,66.85,66.85,0,0,1-23.6-4,51.79,51.79,0,0,1-18.19-11.35,50.48,50.48,0,0,1-11.79-18,69.08,69.08,0,0,1,0-47.4,50.4,50.4,0,0,1,11.79-18,52,52,0,0,1,18.19-11.36,66.85,66.85,0,0,1,23.6-4A65,65,0,0,1,753,134.8a53.16,53.16,0,0,1,18.19,11.47,50.4,50.4,0,0,1,11.79,18A63,63,0,0,1,787.23,187.75Zm-77.17,0q0,13.45,5.18,20.61t14.45,7.17q9.25,0,14.22-7.28t5-20.5q0-13.23-5.07-20.4t-14.33-7.16q-9.27,0-14.34,7.16T710.06,187.75Z"/><path d="M800.9,187.75q0-14.55,4.41-25.25a48.4,48.4,0,0,1,12.24-17.75,50.23,50.23,0,0,1,18.3-10.47,72.17,72.17,0,0,1,22.6-3.42,47.75,47.75,0,0,1,8.6.77,34.58,34.58,0,0,1,6.83,1.88V97.75a58.46,58.46,0,0,1,7.06-1.43,62.19,62.19,0,0,1,9.92-.77,50.8,50.8,0,0,1,8.71.66,14.79,14.79,0,0,1,6.5,2.64,12,12,0,0,1,4,5.41,25.25,25.25,0,0,1,1.32,8.92V217.75q0,10.37-9.7,16.54a67.2,67.2,0,0,1-16.53,7.39,86.16,86.16,0,0,1-49.06-.78,52.13,52.13,0,0,1-19.18-11.46,49.37,49.37,0,0,1-11.91-18A64.93,64.93,0,0,1,800.9,187.75Zm62.62-27.56q-11.91,0-18.3,6.83t-6.39,20.73q0,13.67,5.95,20.61t17.2,6.95a19.86,19.86,0,0,0,7.16-1.21,16.42,16.42,0,0,0,5-2.76V162.81a20.23,20.23,0,0,0-10.62-2.64Z"/><path d="M991.4,244.83a77.49,77.49,0,0,1-24.14-3.63,54.67,54.67,0,0,1-19.4-10.92,50.46,50.46,0,0,1-13-18.3q-4.75-11-4.74-25.79,0-14.56,4.74-25A48.37,48.37,0,0,1,965,134.07a65.91,65.91,0,0,1,20.29-3.2,61.17,61.17,0,0,1,21.27,3.53,51.1,51.1,0,0,1,16.54,9.7,43.12,43.12,0,0,1,10.8,14.77,45.32,45.32,0,0,1,3.86,18.75q0,7.5-4.19,11.46t-11.68,5.07l-54.46,8.16a18.28,18.28,0,0,0,9.92,10.91,38.82,38.82,0,0,0,17.2,3.64,62.06,62.06,0,0,0,17.09-2.31,54,54,0,0,0,13.11-5.41,18.56,18.56,0,0,1,6,6.18,15.9,15.9,0,0,1,2.42,8.38q0,9.92-9.26,14.77a49,49,0,0,1-15.87,5.07A112.41,112.41,0,0,1,991.4,244.83Zm-6.17-86.65a21.65,21.65,0,0,0-9.15,1.77,18,18,0,0,0-9.92,10.69,25.36,25.36,0,0,0-1.44,7l37.71-6.18c-.45-2.94-2.07-5.87-4.86-8.82s-6.91-4.46-12.34-4.46Z"/><path d="M42.3,40.66h0a63.24,63.24,0,0,1,63.24,63.24v135h0A63.25,63.25,0,0,1,42.3,175.67v-135h0Z"/><path class="cls-2" d="M168.33,238.91H105.76a63.26,63.26,0,0,1-63.24-63l-.22-62.57s4,63.24,63.69,62.8S168.33,238.91,168.33,238.91Z"/><path d="M248.17,238.91h0a63.24,63.24,0,0,1-63.24-63.24v-135h0a63.24,63.24,0,0,1,63.24,63.24v135Z"/><path class="cls-3" d="M122.14,40.66h62.57a63.24,63.24,0,0,1,63.24,63l.22,62.57s-4-63.24-63.69-62.8S122.14,40.66,122.14,40.66Z"/><rect class="cls-4" x="118.55" y="114.22" width="52.93" height="52.48" rx="12.26"/></svg>